<svg id="Layer_1" data-name="Layer 1" xmlns="http://www.w3.org/2000/svg" viewBox="0 0 125.37 89.1"><defs><style>.cls-1{fill:#847674;}</style></defs><path class="cls-1" d="M1.31,52.69V1H25.75S43.42-.23,49.66,16c0,0,7,20.79-8.62,34.06,0,0-10.74,9.34-25,6,0,0-6.48-2-8.82-.55a5.65,5.65,0,0,0-2.71,6.86s1.2,3.55,8.06,5.72c0,0,8.73,2.14,8.82,7.62a12.27,12.27,0,0,1-9.19,13S4.51,90.61,0,86.07a19.63,19.63,0,0,0,1.13-4.59l.56-.09a8.76,8.76,0,0,0,9.85,5.17s7.23-1.58,5.53-9.29c0,0-.76-3.56-6.17-5.34,0,0-7.89-2.44-9.59-7,0,0-2.7-8.44,6.21-12.85,0,0,4.94-2.33,12.28.49,0,0,18.67,6.75,22.35-15.48A62.35,62.35,0,0,0,42.06,18c-.29-.27-1.72-13.49-18.33-13.69L8.9,4.14,9,47.89a12.81,12.81,0,0,0-7.68,4.8" transform="translate(0 0)"/><path class="cls-1" d="M60.58,56.91V4.27A91,91,0,0,1,77,4.23c6.42,1,8.79,5.13,8.79,10.76,0,6.38-5.15,10.34-11.24,12.19A34.76,34.76,0,0,1,67,28.77c-.45,0-1,.42-.77.69,1.19,1.6,15.52,20.38,15.52,20.38C83.54,52.1,90,59.19,98,56.43a9.49,9.49,0,0,0,3-1.54,19.55,19.55,0,0,0,9.15,2.41c9-.13,15.22-4.61,15.22-11.76s-5.89-8.81-11.1-10.17c-4.39-1.16-9-2.58-9.1-6.85a5.18,5.18,0,0,1,1.52-3.77,8.52,8.52,0,0,1,5.93-2.31A8,8,0,0,1,120,27.26l.1.12h.39v-.16a16.86,16.86,0,0,1,2-3.31l1.28-1.53-.19-.13c-2.43-1.79-6.62-2.54-9.48-2.47-7.93.11-13.67,5-13.67,11.56,0,7.86,5.84,9.18,11,10.33,4.35,1,8,1.82,8.16,6.08a6.85,6.85,0,0,1-1.88,4.89,8.65,8.65,0,0,1-6,2.38c-3.82,0-6-1.32-8.29-4a.85.85,0,0,0-1.19-.15.83.83,0,0,0-.2.22c-2.49,2.13-5.65,5.35-10.16.64-8.8-11-16.7-22.21-16.7-22.21C83.79,28,93.38,23.48,93.38,14,93.38,5.79,88.22,1.14,75,1.14H53V56.91c1.19,0,2.48-.24,3.79-.24s2.39.19,3.74.24m-25.3,6.15c-7.85,0-12.06,5.62-12.06,12.94,0,8.12,5.16,12.93,12.41,12.93a16.12,16.12,0,0,0,9-3.08V83.09c-1.38,1.38-4.2,3.66-7.78,3.66-6.33,0-9.53-5.06-9.1-10.93h7.45c3.51,0,7.09,0,10.67.14.5-8.78-4.86-12.9-10.67-12.9M27.78,73.83c.32-4.39,2.47-9.14,7.45-9.14,5.2,0,6.45,4.58,6.55,9.14ZM98.71,63.06c-7.84,0-12,5.62-12,13C86.71,84.17,91.85,89,99.13,89a16.12,16.12,0,0,0,9-3.08V83.14c-1.41,1.38-4.21,3.66-7.8,3.66-6.34,0-9.56-5.06-9.09-10.93h7.43c3.52,0,7.08,0,10.66.14.55-8.78-4.84-12.9-10.66-12.9M91.28,73.83c.33-4.39,2.48-9.14,7.43-9.14,5.19,0,6.48,4.58,6.55,9.14Zm-29.47-9A7.47,7.47,0,0,1,67,67a10.65,10.65,0,0,1,1.42,1.72h.42L70,65.26a15.29,15.29,0,0,0-8.29-2.16c-7.85,0-13.61,4.68-13.61,12.83,0,7.37,4.67,13,13.46,13a13.2,13.2,0,0,0,8-2.64l.27-2.4-.31-.15c-2.19,2-4.21,3.41-7.25,3.41-5.74,0-9.56-4.76-9.56-11.51,0-5.53,2.93-10.8,9-10.8m55,13.74V65.39h5.59a3.77,3.77,0,0,1,0-2h-5.59V58.08a13.27,13.27,0,0,1-4.22.85v4.46h-3.24a4.81,4.81,0,0,1,0,2h3.24V80.7c-.27,6.4,2.06,8.23,6.06,8.23A12.89,12.89,0,0,0,123,88V86.75a14.61,14.61,0,0,1-2.36.35c-4.36,0-3.89-5.3-3.89-8.52m-32-15.52c-2.65.1-4.91,2.21-6.63,5l-.27.64V63.39c-.8,0-1.41.15-2.1.15s-1.41-.11-2.12-.15V88.51c.71-.05,1.4-.16,2.12-.16s1.3.11,2.1.16V74.91c0-2.86.11-4.59,2-6.67a4.64,4.64,0,0,1,3.36-1.32,4.16,4.16,0,0,1,2.4.67,19.73,19.73,0,0,1,2.52-3.69,6.17,6.17,0,0,0-3.33-.84" transform="translate(0 0)"/><path class="cls-1" d="M106.88,6.93c.83-1.29,1.84-2.58,1.84-4.25,0-1.84-1.09-2.68-2.86-2.68-2.42,0-3.27,2.8-3.84,4.56L100,14l.85.26,6-7.37" transform="translate(0 0)"/></svg>